<?xml version="1.0" encoding="UTF-8"?>
<svg id="Capa_2" data-name="Capa 2" xmlns="http://www.w3.org/2000/svg" viewBox="0 0 1920 1028">
  <defs>
    <style>
      .cls-1 {
        fill: #892441;
      }
    </style>
  </defs>
  <g id="Capa_1-2" data-name="Capa 1">
    <path class="cls-1" d="m0,0v673h.37c26.77,8.62,64.53,24.68,99.09,56.52,52.92,48.77,53.35,93.12,105.55,136,32.87,27,65.09,36.04,109.6,48,105.82,28.44,179.7,16.33,245.61,19,228.83,9.28,189.6,89.66,399.78,95.48,210.18-5.82,170.95-86.2,399.78-95.48,65.91-2.67,139.79,9.44,245.61-19,44.51-11.96,76.73-21,109.6-48,52.2-42.88,52.63-87.23,105.55-136,34.56-31.84,72.32-47.9,99.09-56.52h.37V0H0Z"/>
  </g>
</svg>