<?xml version="1.0" encoding="UTF-8"?>
<svg id="Capa_2" data-name="Capa 2" xmlns="http://www.w3.org/2000/svg" viewBox="0 0 1920 1094.23">
  <defs>
    <style>
      .cls-1 {
        fill: #892441;
      }
    </style>
  </defs>
  <g id="Capa_1-2" data-name="Capa 1">
    <path class="cls-1" d="m1920,0v1094.23H0v-197c.68-.66,1.37-1.32,2.07-2,25.86-24.79,69.34-62.07,132-96.39,337.6-184.91,668.98,24.71,925.48-135.47,26.39-16.48,45.48-33.4,60.29-50.95,49.69-58.87,53.21-96.3,103.27-184.66,24.14-42.6,45.23-79.82,82.89-117.53,10.06-10.08,57.95-56.87,144.76-92.08,159.67-64.76,286.44-37.4,331.17-90.47,23.12-27.43,25.03-57.91,72.04-93.85,16.71-12.79,48.64-26.73,66.03-33.83Z"/>
  </g>
</svg>