<?xml version="1.0" encoding="UTF-8"?>
<svg id="Capa_2" data-name="Capa 2" xmlns="http://www.w3.org/2000/svg" viewBox="0 0 793.77 833.47">
  <defs>
    <style>
      .cls-1 {
        fill: #bf567c;
      }

      .cls-2 {
        fill: #fafafa;
      }

      .cls-3 {
        fill: #717275;
        stroke-width: 8px;
      }

      .cls-3, .cls-4 {
        stroke: #000;
        stroke-miterlimit: 10;
      }

      .cls-4 {
        fill: none;
        stroke-width: 13px;
      }

      .cls-5 {
        fill: #c5ead9;
      }

      .cls-6 {
        fill: #707070;
      }

      .cls-7 {
        fill: #8d8c8b;
      }

      .cls-8 {
        fill: #8ab7a6;
      }

      .cls-9 {
        fill: #98d3bf;
      }

      .cls-10 {
        fill: #434342;
      }

      .cls-11 {
        fill: #656464;
      }
    </style>
  </defs>
  <g id="Capa_1-2" data-name="Capa 1">
    <g>
      <path class="cls-10" d="m772.16,814.62c-5.04,4.64-10.83,7.96-16.94,9.98-16.93,5.61-36.32,1.24-49.17-12.74l-173.62-188.7c-17.17-18.66-16.31-47.49,1.68-65.09.35-.35.71-.69,1.07-1.02,8.99-8.27,20.34-12.36,31.66-12.36,12.63,0,25.22,5.09,34.45,15.11l173.62,188.71c17.49,19.01,16.26,48.61-2.75,66.11Z"/>
      <path class="cls-11" d="m750.25,824.66c-16.57,5.48-35.55,1.21-48.13-12.44l-169.95-184.31c-16.81-18.23-15.97-46.39,1.64-63.58,4.68-1.55,9.55-2.32,14.42-2.32,12.36,0,24.69,4.97,33.72,14.76l169.95,184.32c16.8,18.22,15.96,46.39-1.65,63.58Z"/>
      <rect class="cls-4" x="606.88" y="510.83" width="93.57" height="350" rx="46.79" ry="46.79" transform="translate(-291.74 623.71) rotate(-42.62)"/>
      <path class="cls-10" d="m662.42,601.6c0,9.23-3.72,18.43-11.04,25.17l-9.07,8.34-47.79,43.97c-13.89,12.78-35.51,11.88-48.29-2.01-11.05-12-11.88-29.76-2.95-42.61,1.41-2.03,3.06-3.94,4.96-5.68l56.86-52.32c13.89-12.78,35.51-11.88,48.29,2.01,6.04,6.57,9.03,14.86,9.03,23.13Z"/>
      <path class="cls-11" d="m642,618.31c0,6.88-2.01,13.75-5.98,19.59l-46.75,44.15c-13.59,12.83-34.74,11.93-47.24-2.02-10.81-12.05-11.62-29.88-2.89-42.78l46.78-44.18c13.59-12.83,34.74-11.93,47.24,2.02,5.91,6.6,8.83,14.92,8.83,23.22Z"/>
      <rect class="cls-4" x="565.63" y="554.96" width="68.36" height="145.63" rx="34.18" ry="34.18" transform="translate(655.67 -238.69) rotate(47.38)"/>
      <path class="cls-6" d="m689.5,348c0,188.61-152.89,341.5-341.5,341.5-14.5,0-28.78-.9-42.8-2.66C136.79,665.79,6.5,522.11,6.5,348,6.5,159.39,159.39,6.5,348,6.5c3.45,0,6.88.05,10.3.16,183.85,5.44,331.2,156.18,331.2,341.34Z"/>
      <path class="cls-7" d="m672.06,346.81c0,179.64-152.33,325.25-340.25,325.25-3.44,0-6.85-.05-10.26-.15C153.75,651.86,23.94,515.02,23.94,349.19,23.94,169.55,176.27,23.94,364.19,23.94c3.44,0,6.85.05,10.26.15,167.8,20.05,297.61,156.89,297.61,322.72Z"/>
      <circle class="cls-4" cx="348" cy="348" r="341.5"/>
      <path class="cls-8" d="m635.5,348c0,158.78-128.72,287.5-287.5,287.5-3.66,0-7.31-.07-10.94-.2-153.71-5.76-276.56-132.18-276.56-287.3,0-144.14,106.08-263.52,244.44-284.3,14.04-2.11,28.42-3.2,43.06-3.2,158.78,0,287.5,128.72,287.5,287.5Z"/>
      <path class="cls-9" d="m581.5,351c0,144.14-106.08,263.52-244.44,284.3-153.71-5.76-276.56-132.18-276.56-287.3,0-144.14,106.08-263.52,244.44-284.3,153.71,5.76,276.56,132.18,276.56,287.3Z"/>
      <circle class="cls-4" cx="348" cy="348" r="287.5"/>
      <g>
        <path class="cls-3" d="m432.6,216.48h0c4.28-9.56,15.5-13.84,25.06-9.55l11.52,8.26c12.81,9.18,27.34,15.69,42.72,19.14l10.1,2.27c7.39,1.66,13.36,7.44,14.67,14.9.63,3.6.23,7.42-1.38,11h0c-4.28,9.56-13.64,11.9-25.06,9.55l-13.84-3.1c-15.38-3.45-29.91-9.96-42.72-19.14l-11.52-8.26c-8.83-8.11-13.84-15.5-9.55-25.06Z"/>
        <path class="cls-3" d="m263.4,216.48h0c-4.28-9.56-15.5-13.84-25.06-9.55l-11.52,8.26c-12.81,9.18-27.34,15.69-42.72,19.14l-10.1,2.27c-7.39,1.66-13.36,7.44-14.67,14.9-.63,3.6-.23,7.42,1.38,11h0c4.28,9.56,13.64,11.9,25.06,9.55l13.84-3.1c15.38-3.45,29.91-9.96,42.72-19.14l11.52-8.26c8.83-8.11,13.84-15.5,9.55-25.06Z"/>
      </g>
      <g>
        <circle cx="485.5" cy="349.5" r="66"/>
        <circle class="cls-2" cx="505.5" cy="328.5" r="15"/>
        <circle class="cls-2" cx="473.5" cy="361.5" r="18"/>
        <circle cx="210.5" cy="346.5" r="66"/>
        <circle class="cls-2" cx="230.5" cy="325.5" r="15"/>
        <circle class="cls-2" cx="198.5" cy="358.5" r="18"/>
      </g>
      <g>
        <circle class="cls-1" cx="178" cy="479.5" r="42.5"/>
        <circle class="cls-1" cx="518" cy="479.5" r="42.5"/>
      </g>
      <path d="m317.77,447.7c18.36-12.38,42.73-11.66,60.47,1.52,6.2,4.61,12.19-5.8,6.06-10.36-20.88-15.51-51.05-16.03-72.58-1.52-6.37,4.29-.37,14.69,6.06,10.36h0Z"/>
      <path class="cls-5" d="m164.66,155.27s27.79-50.24,82.04-37.16c19.32,4.66,15.8,30.94-1.44,31.11-25.02.25-43.44,12.19-58.57,29.97-15.34,18.02-34.4.66-22.03-23.92Z"/>
    </g>
  </g>
</svg>