<svg width="214" height="66" viewBox="0 0 214 66" fill="none" xmlns="http://www.w3.org/2000/svg">
<path d="M14.9707 65.3301C12.7376 65.3301 10.7324 64.7376 8.95508 63.5527C7.17773 62.4134 5.67383 60.8411 4.44336 58.8359C3.21289 56.8307 2.30143 54.5065 1.70898 51.8633C1.16211 49.2201 0.957031 46.4173 1.09375 43.4551C1.27604 40.3105 1.75456 37.0749 2.5293 33.748C3.30404 30.3757 4.35221 27.0944 5.67383 23.9043C6.99544 20.7142 8.52214 17.6836 10.2539 14.8125C12.0312 11.9414 13.9681 9.4349 16.0645 7.29297C18.2064 5.15104 20.485 3.46484 22.9004 2.23438C25.3158 0.958333 27.8451 0.320312 30.4883 0.320312C32.2201 0.320312 33.6784 0.753255 34.8633 1.61914C36.0482 2.48503 36.9596 3.62435 37.5977 5.03711C38.2812 6.4043 38.7142 7.95378 38.8965 9.68555C39.0788 11.4173 39.056 13.1491 38.8281 14.8809C38.6458 16.5671 38.2585 18.2077 37.666 19.8027C37.1191 21.3522 36.4355 22.6283 35.6152 23.6309C34.5671 24.9525 33.61 25.6589 32.7441 25.75C31.9238 25.7956 31.1263 25.5449 30.3516 24.998C30.0326 24.7246 29.7135 24.4056 29.3945 24.041C29.0755 23.722 28.7337 23.3346 28.3691 22.8789C28.0046 22.3776 27.6172 21.7624 27.207 21.0332C28.0729 20.7142 28.8704 20.1901 29.5996 19.4609C30.3288 18.6862 30.944 17.8203 31.4453 16.8633C31.9922 15.9062 32.4023 14.9036 32.6758 13.8555C32.9948 12.7617 33.1771 11.6908 33.2227 10.6426C33.2682 9.82227 33.2454 9.02474 33.1543 8.25C33.0632 7.42969 32.8809 6.72331 32.6074 6.13086C32.334 5.49284 31.9466 4.99154 31.4453 4.62695C30.9896 4.2168 30.3971 4.01172 29.668 4.01172C27.8451 4.01172 26.0677 4.7181 24.3359 6.13086C22.6042 7.49805 20.9635 9.34375 19.4141 11.668C17.9102 13.9466 16.4974 16.5671 15.1758 19.5293C13.8997 22.4915 12.7832 25.5449 11.8262 28.6895C10.8691 31.834 10.0944 34.9329 9.50195 37.9863C8.90951 41.0397 8.54492 43.8197 8.4082 46.3262C8.22591 49.4707 8.33984 52.0228 8.75 53.9824C9.16016 55.9421 9.70703 57.4688 10.3906 58.5625C11.1198 59.7018 11.8945 60.4538 12.7148 60.8184C13.5352 61.2285 14.2871 61.4336 14.9707 61.4336C16.2467 61.4336 17.6823 60.8411 19.2773 59.6562C20.8724 58.4714 22.3991 56.8535 23.8574 54.8027C25.3158 52.7975 26.6146 50.4733 27.7539 47.8301C28.9388 45.1868 29.7819 42.4069 30.2832 39.4902C29.1439 39.4902 27.9818 39.513 26.7969 39.5586C25.6576 39.5586 24.5638 39.5814 23.5156 39.627C22.4674 39.6725 21.5332 39.7409 20.7129 39.832C19.8926 39.8776 19.2546 39.946 18.7988 40.0371C18.4798 39.9004 18.252 39.7409 18.1152 39.5586C18.0241 39.3763 17.9329 39.1712 17.8418 38.9434C17.7507 38.7611 17.7051 38.5332 17.7051 38.2598C17.7051 37.9863 17.7507 37.7357 17.8418 37.5078C17.9329 37.2799 18.0469 37.0521 18.1836 36.8242C18.3203 36.5508 18.5026 36.2773 18.7305 36.0039C20.1888 35.7305 21.6243 35.5026 23.0371 35.3203C24.4499 35.138 25.9082 35.0013 27.4121 34.9102C28.9616 34.7734 30.6022 34.6823 32.334 34.6367C34.1113 34.5456 36.0938 34.4772 38.2812 34.4316C39.1927 34.3861 39.7396 34.5 39.9219 34.7734C40.1497 35.0469 40.0814 35.7305 39.7168 36.8242C39.4434 37.6901 39.0788 38.3965 38.623 38.9434C38.2129 39.4902 37.5065 39.7181 36.5039 39.627C36.1849 39.627 35.9342 39.6042 35.752 39.5586C35.3418 42.2474 34.4759 45.0957 33.1543 48.1035C31.8327 51.1113 30.2148 53.8913 28.3008 56.4434C26.3867 58.9954 24.2676 61.1146 21.9434 62.8008C19.6647 64.487 17.3405 65.3301 14.9707 65.3301ZM51.3379 53.0938C49.6061 53.0938 48.1934 52.8203 47.0996 52.2734C46.0059 51.7266 45.14 51.0658 44.502 50.291C43.9095 49.4707 43.4766 48.6048 43.2031 47.6934C42.9753 46.7363 42.8613 45.8704 42.8613 45.0957C42.8613 43.7285 42.9753 42.293 43.2031 40.7891C43.431 39.2396 43.7044 37.8268 44.0234 36.5508C44.3424 35.2292 44.6159 34.1126 44.8438 33.2012C45.1172 32.2897 45.2995 31.7201 45.3906 31.4922C45.8008 30.1706 46.3249 29.0312 46.9629 28.0742C47.6465 27.0716 48.5807 26.388 49.7656 26.0234C50.2214 25.9323 50.6999 25.8411 51.2012 25.75C51.6113 25.7044 52.0215 25.6816 52.4316 25.6816C52.8874 25.6816 53.2975 25.75 53.6621 25.8867C52.4316 29.0312 51.4518 31.6517 50.7227 33.748C50.0391 35.8444 49.515 37.5534 49.1504 38.875C48.7402 40.3789 48.4896 41.5866 48.3984 42.498C48.1706 44.5488 48.3529 46.0983 48.9453 47.1465C49.5378 48.1947 50.7454 48.7188 52.5684 48.7188C53.7533 48.7188 54.8926 48.2858 55.9863 47.4199C57.0801 46.5085 58.0827 45.3464 58.9941 43.9336C58.8574 43.2044 58.7891 42.4525 58.7891 41.6777C58.7891 40.2194 58.903 38.8066 59.1309 37.4395C59.4043 36.0267 59.7005 34.7279 60.0195 33.543C60.3841 32.3125 60.7487 31.2188 61.1133 30.2617C61.5234 29.3047 61.8652 28.5527 62.1387 28.0059C62.64 26.9121 63.0957 26.2513 63.5059 26.0234C63.916 25.75 64.5768 25.5905 65.4883 25.5449C65.8529 25.4993 66.1491 25.4993 66.377 25.5449C66.6504 25.5449 66.8783 25.5677 67.0605 25.6133C67.6074 25.75 67.8809 26.0234 67.8809 26.4336C67.8809 27.1628 67.8353 28.2565 67.7441 29.7148C67.653 31.1732 67.3796 32.6771 66.9238 34.2266C66.6048 35.5026 66.2858 36.5964 65.9668 37.5078C65.6934 38.3737 65.4199 39.1257 65.1465 39.7637C64.873 40.3561 64.5996 40.8574 64.3262 41.2676C64.0527 41.6322 63.8021 41.974 63.5742 42.293C63.6654 43.6602 63.7793 44.7539 63.916 45.5742C64.0527 46.3945 64.2122 47.0326 64.3945 47.4883C64.6224 47.8984 64.873 48.1947 65.1465 48.377C65.4655 48.5137 65.8073 48.582 66.1719 48.582C66.8099 48.582 67.5618 48.2858 68.4277 47.6934C69.2936 47.0553 70.1823 46.2806 71.0938 45.3691C72.0508 44.4121 72.985 43.3867 73.8965 42.293C74.8535 41.1536 75.7194 40.0827 76.4941 39.0801C77.2689 38.0775 77.9297 37.2116 78.4766 36.4824C79.0234 35.7077 79.3652 35.2292 79.502 35.0469C79.821 34.6367 80.1172 34.3861 80.3906 34.2949C80.7096 34.2038 80.9603 34.2493 81.1426 34.4316C81.3249 34.5684 81.416 34.819 81.416 35.1836C81.4616 35.5026 81.3704 35.8672 81.1426 36.2773C80.2311 38.0091 79.0918 39.8548 77.7246 41.8145C76.403 43.7285 74.9674 45.5059 73.418 47.1465C71.9141 48.7871 70.3874 50.1543 68.8379 51.248C67.2884 52.3418 65.8301 52.8887 64.4629 52.8887C63.2324 52.8887 62.2526 52.4785 61.5234 51.6582C60.8398 50.7923 60.2474 49.5618 59.7461 47.9668C58.6979 49.6074 57.4674 50.8835 56.0547 51.7949C54.6419 52.6608 53.0697 53.0938 51.3379 53.0938ZM85.3125 49.6758C85.5859 49.8581 85.9277 49.9492 86.3379 49.9492C86.7936 49.9492 87.2266 49.8581 87.6367 49.6758C88.0924 49.4935 88.5026 49.2428 88.8672 48.9238C89.2773 48.6048 89.5736 48.1947 89.7559 47.6934C89.9382 47.1921 89.9382 46.4857 89.7559 45.5742C89.5736 44.6172 89.2773 43.6146 88.8672 42.5664C88.5026 41.4727 88.0924 40.3789 87.6367 39.2852C87.181 38.1914 86.7936 37.1888 86.4746 36.2773C86.2012 35.5938 85.9733 34.9557 85.791 34.3633C85.6087 33.862 85.4264 33.3835 85.2441 32.9277C85.1074 32.4264 84.9935 32.0846 84.9023 31.9023C84.6745 32.2669 84.2643 32.8594 83.6719 33.6797C83.125 34.5 82.5098 35.3659 81.8262 36.2773C81.1882 37.1432 80.5729 37.9635 79.9805 38.7383C79.388 39.4674 78.9779 39.9688 78.75 40.2422C78.3854 40.6523 78.0208 40.903 77.6562 40.9941C77.3372 41.0397 77.0638 40.9714 76.8359 40.7891C76.6081 40.5612 76.4714 40.265 76.4258 39.9004C76.4258 39.4902 76.6081 39.0117 76.9727 38.4648C77.2461 38.1003 77.6562 37.5306 78.2031 36.7559C78.75 35.9355 79.2969 35.1152 79.8438 34.2949C80.3906 33.429 80.8919 32.6771 81.3477 32.0391C81.8034 31.3555 82.054 30.9453 82.0996 30.8086C82.1908 30.444 82.054 29.9655 81.6895 29.373C81.3704 28.7806 81.3249 28.097 81.5527 27.3223C81.735 26.6842 82.1452 25.9551 82.7832 25.1348C83.4212 24.2689 84.1732 23.4941 85.0391 22.8105C85.9049 22.127 86.7936 21.6257 87.7051 21.3066C88.6165 20.9421 89.4368 20.9421 90.166 21.3066C90.7585 21.6712 91.237 22.0814 91.6016 22.5371C91.9661 22.9473 92.1029 23.3802 92.0117 23.8359C91.9206 24.0638 91.7839 24.36 91.6016 24.7246C91.4193 25.0892 91.1458 25.5449 90.7812 26.0918C90.4167 26.5931 89.8926 27.2539 89.209 28.0742C89.3457 29.1224 89.528 30.0794 89.7559 30.9453C90.0293 31.8112 90.2799 32.5632 90.5078 33.2012C90.7812 33.9759 91.0775 34.6823 91.3965 35.3203C91.8066 36.1406 92.2396 36.9837 92.6953 37.8496C93.151 38.7155 93.5612 39.5814 93.9258 40.4473C94.2904 41.2676 94.5866 42.0423 94.8145 42.7715C95.0423 43.5007 95.1107 44.1159 95.0195 44.6172C94.8828 45.3919 94.4727 46.3262 93.7891 47.4199C93.151 48.5137 92.3307 49.5846 91.3281 50.6328C90.3711 51.6354 89.2546 52.5013 87.9785 53.2305C86.748 53.9596 85.4492 54.3242 84.082 54.3242C83.125 54.3242 82.1908 54.028 81.2793 53.4355C80.4134 52.8431 79.6615 52.1595 79.0234 51.3848C78.431 50.5645 77.9753 49.7669 77.6562 48.9922C77.3828 48.2174 77.36 47.625 77.5879 47.2148C77.8613 46.668 78.112 46.235 78.3398 45.916C78.5677 45.597 78.9095 45.2324 79.3652 44.8223C79.5475 44.6855 79.7754 44.526 80.0488 44.3438C80.2767 44.207 80.5957 44.0703 81.0059 43.9336C81.416 43.7969 81.8945 43.6374 82.4414 43.4551C82.8971 44.8678 83.3073 45.9844 83.6719 46.8047C84.0365 47.5794 84.3327 48.1947 84.5605 48.6504C84.834 49.1517 85.0846 49.4935 85.3125 49.6758Z" fill="white"/>
<path d="M125.508 34.7051C125.69 34.4316 125.918 34.2721 126.191 34.2266C126.51 34.1354 126.761 34.1582 126.943 34.2949C127.126 34.4316 127.217 34.6595 127.217 34.9785C127.262 35.2975 127.148 35.7305 126.875 36.2773C125.964 38.0091 124.756 39.8776 123.252 41.8828C121.794 43.888 120.244 45.7793 118.604 47.5566C116.963 49.2884 115.368 50.724 113.818 51.8633C112.269 53.0026 110.97 53.5723 109.922 53.5723C108.418 53.5723 107.165 53.276 106.162 52.6836C105.16 52.0911 104.362 51.362 103.77 50.4961C103.223 49.6302 102.835 48.696 102.607 47.6934C102.38 46.6452 102.311 45.6882 102.402 44.8223C102.448 44.0931 102.607 42.7943 102.881 40.9258C103.154 39.0117 103.519 36.8242 103.975 34.3633C104.43 31.8568 104.932 29.1908 105.479 26.3652C106.071 23.4941 106.686 20.737 107.324 18.0938C106.549 18.1849 105.775 18.276 105 18.3672C104.225 18.4583 103.519 18.5039 102.881 18.5039C101.423 18.5039 100.055 18.3444 98.7793 18.0254C97.4577 17.6608 96.4779 17.319 95.8398 17C95.4753 16.8177 95.3158 16.5671 95.3613 16.248C95.4069 15.8835 95.5436 15.5417 95.7715 15.2227C95.9993 14.8581 96.2956 14.5618 96.6602 14.334C96.9792 14.0605 97.2754 13.9238 97.5488 13.9238C98.4147 14.015 99.349 14.1061 100.352 14.1973C101.354 14.2428 102.448 14.2428 103.633 14.1973C104.499 14.1517 105.319 14.0833 106.094 13.9922C106.914 13.901 107.712 13.7871 108.486 13.6504C109.079 11.4629 109.648 9.57161 110.195 7.97656C110.788 6.33594 111.312 5.19661 111.768 4.55859C111.904 4.33073 112.201 4.14844 112.656 4.01172C113.158 3.82943 113.682 3.71549 114.229 3.66992C114.775 3.57878 115.299 3.57878 115.801 3.66992C116.302 3.71549 116.667 3.875 116.895 4.14844C117.122 4.51302 117.214 5.44727 117.168 6.95117C117.122 8.45508 116.872 10.3691 116.416 12.6934C118.33 12.6934 120.016 12.8073 121.475 13.0352C122.979 13.2174 124.255 13.4453 125.303 13.7188C126.351 13.9466 127.194 14.1973 127.832 14.4707C128.47 14.6986 128.949 14.8581 129.268 14.9492C129.587 15.0404 129.746 15.2682 129.746 15.6328C129.792 15.9974 129.723 16.3848 129.541 16.7949C129.404 17.1595 129.154 17.4785 128.789 17.752C128.424 18.0254 128.014 18.1165 127.559 18.0254C127.103 17.9798 126.579 17.8887 125.986 17.752C125.439 17.6152 124.756 17.5013 123.936 17.4102C123.161 17.319 122.227 17.2279 121.133 17.1367C120.039 17.0456 118.763 17 117.305 17C117.031 17 116.712 17.0228 116.348 17.0684C116.029 17.0684 115.687 17.0684 115.322 17.0684C115.14 17.7975 114.958 18.5267 114.775 19.2559C114.639 19.9395 114.434 20.6686 114.16 21.4434C113.568 23.2663 112.884 25.2487 112.109 27.3906C111.426 29.2591 110.605 31.401 109.648 33.8164C108.691 36.2318 107.62 38.8066 106.436 41.541C106.162 43.5007 106.185 45.0046 106.504 46.0527C106.868 47.0553 107.301 47.7845 107.803 48.2402C108.395 48.7415 109.124 49.015 109.99 49.0605C110.674 49.1517 111.494 48.9238 112.451 48.377C113.454 47.7845 114.479 47.0098 115.527 46.0527C116.576 45.0957 117.624 44.0475 118.672 42.9082C119.766 41.7689 120.768 40.6523 121.68 39.5586C122.591 38.4648 123.389 37.485 124.072 36.6191C124.756 35.7077 125.234 35.0697 125.508 34.7051ZM136.445 11.7363C136.309 12.2376 136.035 12.7389 135.625 13.2402C135.26 13.696 134.827 14.0833 134.326 14.4023C133.87 14.6758 133.392 14.8581 132.891 14.9492C132.389 15.0404 131.979 14.9492 131.66 14.6758C130.703 13.9466 130.202 13.1719 130.156 12.3516C130.111 11.4857 130.316 10.6882 130.771 9.95898C131.227 9.18424 131.797 8.54622 132.48 8.04492C133.164 7.49805 133.757 7.17904 134.258 7.08789C134.759 6.99674 135.169 7.11068 135.488 7.42969C135.853 7.70312 136.126 8.09049 136.309 8.5918C136.491 9.04753 136.582 9.57161 136.582 10.1641C136.628 10.7565 136.582 11.2806 136.445 11.7363ZM127.012 26.2969C127.24 26.0234 127.673 25.7956 128.311 25.6133C128.949 25.431 129.609 25.2943 130.293 25.2031C130.977 25.0664 131.592 24.998 132.139 24.998C132.731 24.9525 133.073 24.9525 133.164 24.998C133.21 25.0436 133.096 25.5221 132.822 26.4336C132.549 27.3451 132.207 28.416 131.797 29.6465C131.387 30.877 130.954 32.153 130.498 33.4746C130.042 34.7507 129.701 35.7988 129.473 36.6191C129.245 37.4395 128.971 38.3737 128.652 39.4219C128.333 40.4245 128.037 41.4271 127.764 42.4297C127.536 43.3867 127.376 44.2982 127.285 45.1641C127.194 46.0299 127.262 46.6908 127.49 47.1465C127.718 47.6934 127.969 48.0807 128.242 48.3086C128.516 48.4909 128.812 48.582 129.131 48.582C130.042 48.582 131.182 48.0807 132.549 47.0781C133.962 46.0755 135.374 44.8906 136.787 43.5234C138.245 42.1107 139.59 40.6979 140.82 39.2852C142.051 37.8268 142.962 36.6647 143.555 35.7988C143.919 35.3431 144.284 35.0469 144.648 34.9102C145.059 34.7734 145.378 34.7962 145.605 34.9785C145.879 35.1608 146.016 35.457 146.016 35.8672C146.061 36.2773 145.924 36.7559 145.605 37.3027C144.876 38.5788 143.805 40.1055 142.393 41.8828C140.98 43.6146 139.476 45.3008 137.881 46.9414C136.286 48.5365 134.714 49.9036 133.164 51.043C131.66 52.1823 130.43 52.7747 129.473 52.8203C128.698 52.8659 127.923 52.7292 127.148 52.4102C126.419 52.1367 125.736 51.7493 125.098 51.248C124.505 50.7012 124.004 50.0859 123.594 49.4023C123.184 48.6732 122.956 47.9212 122.91 47.1465C122.773 46.0072 122.773 44.4577 122.91 42.498C123.047 40.4928 123.298 38.4648 123.662 36.4141C124.027 34.3177 124.482 32.3353 125.029 30.4668C125.622 28.5983 126.283 27.2083 127.012 26.2969ZM152.236 49.6758C153.649 49.6758 155.199 49.1289 156.885 48.0352C158.617 46.8958 160.28 45.5742 161.875 44.0703C163.516 42.5664 164.997 41.0397 166.318 39.4902C167.686 37.8952 168.711 36.6191 169.395 35.6621C169.805 35.0697 170.192 34.7279 170.557 34.6367C170.921 34.5 171.195 34.5456 171.377 34.7734C171.559 35.0013 171.628 35.3659 171.582 35.8672C171.536 36.3229 171.331 36.847 170.967 37.4395C170.648 37.9863 170.101 38.7839 169.326 39.832C168.597 40.8346 167.708 41.9512 166.66 43.1816C165.658 44.3665 164.495 45.597 163.174 46.873C161.898 48.1035 160.553 49.2428 159.141 50.291C157.728 51.2936 156.27 52.1139 154.766 52.752C153.262 53.4355 151.781 53.7773 150.322 53.7773C148.317 53.7773 146.631 53.39 145.264 52.6152C143.942 51.8861 142.871 50.929 142.051 49.7441C141.276 48.5592 140.729 47.2604 140.41 45.8477C140.091 44.3893 139.932 42.9538 139.932 41.541C139.932 40.1283 140.251 38.3737 140.889 36.2773C141.527 34.181 142.461 32.1758 143.691 30.2617C144.967 28.3021 146.562 26.6387 148.477 25.2715C150.391 23.8587 152.646 23.1523 155.244 23.1523C156.702 23.1523 157.933 23.6536 158.936 24.6562C159.984 25.6589 160.485 27.026 160.439 28.7578C160.439 29.5781 160.303 30.3984 160.029 31.2188C159.756 31.9935 159.391 32.6999 158.936 33.3379C158.48 33.9303 157.933 34.4089 157.295 34.7734C156.702 35.138 156.042 35.3203 155.312 35.3203C154.72 35.3203 154.264 35.1152 153.945 34.7051C153.672 34.2493 153.49 33.748 153.398 33.2012C153.353 32.6087 153.353 32.0391 153.398 31.4922C153.49 30.9453 153.581 30.5807 153.672 30.3984C153.9 30.0794 154.15 29.8516 154.424 29.7148C154.697 29.5781 155.016 29.4186 155.381 29.2363C155.654 29.0996 155.859 28.8945 155.996 28.6211C156.178 28.3477 156.27 28.0514 156.27 27.7324C156.27 27.4134 156.178 27.14 155.996 26.9121C155.814 26.6842 155.518 26.5703 155.107 26.5703C154.697 26.5703 153.945 26.9121 152.852 27.5957C151.803 28.2337 150.71 29.2135 149.57 30.5352C148.477 31.8112 147.497 33.429 146.631 35.3887C145.765 37.3483 145.309 39.627 145.264 42.2246C145.218 43.7285 145.423 44.959 145.879 45.916C146.335 46.873 146.904 47.625 147.588 48.1719C148.271 48.7188 149.023 49.1061 149.844 49.334C150.664 49.5618 151.462 49.6758 152.236 49.6758ZM186.279 41.1309C185.824 42.8626 185.208 44.4805 184.434 45.9844C183.659 47.4883 182.725 48.7871 181.631 49.8809C180.583 50.9746 179.375 51.8177 178.008 52.4102C176.686 53.0482 175.228 53.3672 173.633 53.3672C171.764 53.3672 170.283 52.957 169.189 52.1367C168.141 51.362 167.344 50.3822 166.797 49.1973C166.296 48.0124 165.999 46.7135 165.908 45.3008C165.771 43.888 165.703 42.5664 165.703 41.3359C165.703 40.4701 165.817 39.513 166.045 38.4648C166.227 37.4167 166.501 36.3457 166.865 35.252C167.23 34.1582 167.686 33.0645 168.232 31.9707C168.825 30.877 169.508 29.8743 170.283 28.9629C170.557 28.1882 170.967 27.5046 171.514 26.9121C172.106 26.3197 172.767 25.8411 173.496 25.4766C174.271 25.0664 175.091 24.7702 175.957 24.5879C176.823 24.36 177.666 24.2461 178.486 24.2461C178.623 24.2461 178.737 24.2689 178.828 24.3145C178.965 24.36 179.102 24.4056 179.238 24.4512C179.831 24.4967 180.56 24.7246 181.426 25.1348C182.337 25.5449 183.203 26.1602 184.023 26.9805C184.889 27.8008 185.618 28.849 186.211 30.125C186.803 31.3555 187.1 32.8594 187.1 34.6367C187.1 35.0013 187.077 35.457 187.031 36.0039C186.986 36.5052 186.94 36.9382 186.895 37.3027C187.943 36.8926 189.036 36.3913 190.176 35.7988C191.315 35.2064 192.409 34.5911 193.457 33.9531C194.551 33.2695 195.553 32.5859 196.465 31.9023C197.376 31.2188 198.105 30.6035 198.652 30.0566C199.108 29.6465 199.495 29.4186 199.814 29.373C200.133 29.3275 200.361 29.4186 200.498 29.6465C200.635 29.8743 200.658 30.1934 200.566 30.6035C200.475 31.0137 200.225 31.4694 199.814 31.9707C199.587 32.2441 198.994 32.791 198.037 33.6113C197.126 34.4316 196.032 35.3203 194.756 36.2773C193.48 37.2344 192.09 38.1686 190.586 39.0801C189.082 39.9915 187.646 40.6751 186.279 41.1309ZM174.727 30.7402C174.59 31.1504 174.521 31.5833 174.521 32.0391C174.521 32.7682 174.567 33.543 174.658 34.3633C174.749 35.138 174.977 35.8444 175.342 36.4824C175.706 37.1204 176.276 37.6673 177.051 38.123C177.871 38.5332 178.988 38.7383 180.4 38.7383C180.628 38.7383 180.856 38.7383 181.084 38.7383C181.312 38.6927 181.54 38.6471 181.768 38.6016C181.904 38.0091 182.018 37.485 182.109 37.0293C182.246 36.528 182.314 36.0951 182.314 35.7305C182.406 34.8646 182.406 33.9759 182.314 33.0645C182.223 32.153 182.041 31.3327 181.768 30.6035C181.54 29.8288 181.221 29.2135 180.811 28.7578C180.446 28.2565 179.99 28.0059 179.443 28.0059C178.577 28.0059 177.734 28.2565 176.914 28.7578C176.139 29.2135 175.41 29.8743 174.727 30.7402ZM170.352 42.7715C170.352 43.5918 170.397 44.4121 170.488 45.2324C170.579 46.0072 170.762 46.7135 171.035 47.3516C171.309 47.944 171.673 48.4453 172.129 48.8555C172.585 49.2201 173.177 49.4023 173.906 49.4023C174.727 49.4023 175.479 49.2201 176.162 48.8555C176.846 48.4453 177.461 47.944 178.008 47.3516C178.555 46.7135 179.033 46.0072 179.443 45.2324C179.899 44.4121 180.286 43.569 180.605 42.7031C180.286 42.7487 179.967 42.7943 179.648 42.8398C179.375 42.8398 179.056 42.8398 178.691 42.8398C176.96 42.8398 175.456 42.3385 174.18 41.3359C172.949 40.2878 171.992 38.9661 171.309 37.3711C171.035 38.3281 170.807 39.2624 170.625 40.1738C170.443 41.0853 170.352 41.9512 170.352 42.7715ZM203.232 49.6758C203.506 49.8581 203.848 49.9492 204.258 49.9492C204.714 49.9492 205.146 49.8581 205.557 49.6758C206.012 49.4935 206.423 49.2428 206.787 48.9238C207.197 48.6048 207.493 48.1947 207.676 47.6934C207.858 47.1921 207.858 46.4857 207.676 45.5742C207.493 44.6172 207.197 43.6146 206.787 42.5664C206.423 41.4727 206.012 40.3789 205.557 39.2852C205.101 38.1914 204.714 37.1888 204.395 36.2773C204.121 35.5938 203.893 34.9557 203.711 34.3633C203.529 33.862 203.346 33.3835 203.164 32.9277C203.027 32.4264 202.913 32.0846 202.822 31.9023C202.594 32.2669 202.184 32.8594 201.592 33.6797C201.045 34.5 200.43 35.3659 199.746 36.2773C199.108 37.1432 198.493 37.9635 197.9 38.7383C197.308 39.4674 196.898 39.9688 196.67 40.2422C196.305 40.6523 195.941 40.903 195.576 40.9941C195.257 41.0397 194.984 40.9714 194.756 40.7891C194.528 40.5612 194.391 40.265 194.346 39.9004C194.346 39.4902 194.528 39.0117 194.893 38.4648C195.166 38.1003 195.576 37.5306 196.123 36.7559C196.67 35.9355 197.217 35.1152 197.764 34.2949C198.311 33.429 198.812 32.6771 199.268 32.0391C199.723 31.3555 199.974 30.9453 200.02 30.8086C200.111 30.444 199.974 29.9655 199.609 29.373C199.29 28.7806 199.245 28.097 199.473 27.3223C199.655 26.6842 200.065 25.9551 200.703 25.1348C201.341 24.2689 202.093 23.4941 202.959 22.8105C203.825 22.127 204.714 21.6257 205.625 21.3066C206.536 20.9421 207.357 20.9421 208.086 21.3066C208.678 21.6712 209.157 22.0814 209.521 22.5371C209.886 22.9473 210.023 23.3802 209.932 23.8359C209.84 24.0638 209.704 24.36 209.521 24.7246C209.339 25.0892 209.066 25.5449 208.701 26.0918C208.337 26.5931 207.812 27.2539 207.129 28.0742C207.266 29.1224 207.448 30.0794 207.676 30.9453C207.949 31.8112 208.2 32.5632 208.428 33.2012C208.701 33.9759 208.997 34.6823 209.316 35.3203C209.727 36.1406 210.16 36.9837 210.615 37.8496C211.071 38.7155 211.481 39.5814 211.846 40.4473C212.21 41.2676 212.507 42.0423 212.734 42.7715C212.962 43.5007 213.031 44.1159 212.939 44.6172C212.803 45.3919 212.393 46.3262 211.709 47.4199C211.071 48.5137 210.251 49.5846 209.248 50.6328C208.291 51.6354 207.174 52.5013 205.898 53.2305C204.668 53.9596 203.369 54.3242 202.002 54.3242C201.045 54.3242 200.111 54.028 199.199 53.4355C198.333 52.8431 197.581 52.1595 196.943 51.3848C196.351 50.5645 195.895 49.7669 195.576 48.9922C195.303 48.2174 195.28 47.625 195.508 47.2148C195.781 46.668 196.032 46.235 196.26 45.916C196.488 45.597 196.829 45.2324 197.285 44.8223C197.467 44.6855 197.695 44.526 197.969 44.3438C198.197 44.207 198.516 44.0703 198.926 43.9336C199.336 43.7969 199.814 43.6374 200.361 43.4551C200.817 44.8678 201.227 45.9844 201.592 46.8047C201.956 47.5794 202.253 48.1947 202.48 48.6504C202.754 49.1517 203.005 49.4935 203.232 49.6758Z" fill="white"/>
</svg>
