<svg width="65" height="65" viewBox="0 0 65 65" fill="none" xmlns="http://www.w3.org/2000/svg">
<path d="M32.5 0C14.5464 0 0 14.5464 0 32.5C0 50.4536 14.5464 65 32.5 65C50.4536 65 65 50.4536 65 32.5C65 14.5464 50.4536 0 32.5 0ZM32.5 12.5806C38.8689 12.5806 44.0323 17.744 44.0323 24.1129C44.0323 30.4819 38.8689 35.6452 32.5 35.6452C26.131 35.6452 20.9677 30.4819 20.9677 24.1129C20.9677 17.744 26.131 12.5806 32.5 12.5806ZM32.5 57.6613C24.8075 57.6613 17.9143 54.1754 13.3014 48.7238C15.7651 44.0847 20.5877 40.8871 26.2097 40.8871C26.5242 40.8871 26.8387 40.9395 27.1401 41.0312C28.8437 41.5817 30.626 41.9355 32.5 41.9355C34.374 41.9355 36.1694 41.5817 37.8599 41.0312C38.1613 40.9395 38.4758 40.8871 38.7903 40.8871C44.4123 40.8871 49.2349 44.0847 51.6986 48.7238C47.0857 54.1754 40.1925 57.6613 32.5 57.6613Z" fill="white"/>
</svg>
